<?xml version="1.0" encoding="UTF-8" standalone="no"?>
<!DOCTYPE svg PUBLIC "-//W3C//DTD SVG 1.1//EN" "http://www.w3.org/Graphics/SVG/1.1/DTD/svg11.dtd">
<svg version="1.1" xmlns="http://www.w3.org/2000/svg" xmlns:xlink="http://www.w3.org/1999/xlink" preserveAspectRatio="xMidYMid meet" viewBox="0 0 640 640" width="640" height="640"><defs><path d="M606.62 329.86C606.62 476.39 478.19 595.35 320 595.35C161.81 595.35 33.38 476.39 33.38 329.86C33.38 183.33 161.81 64.37 320 64.37C478.19 64.37 606.62 183.33 606.62 329.86Z" id="l57ALrR4NS"></path><linearGradient id="gradientb6THn9rXZp" gradientUnits="userSpaceOnUse" x1="138.31" y1="123.52" x2="510.14" y2="537.61"><stop style="stop-color: #b9f0f3;stop-opacity: 1" offset="0%"></stop><stop style="stop-color: #3c9ef9;stop-opacity: 1" offset="100%"></stop></linearGradient><path d="M281.6 372.07C427.18 522.04 562.58 627.1 583.77 606.52C604.97 585.95 503.98 447.48 358.4 297.51C212.82 147.54 77.42 42.48 56.23 63.05C35.03 83.63 136.02 222.09 281.6 372.07Z" id="hRzm0m6i8"></path><linearGradient id="gradientdDJtdg0Sk" gradientUnits="userSpaceOnUse" x1="407.57" y1="296.14" x2="322.34" y2="411.51"><stop style="stop-color: #dbdada;stop-opacity: 1" offset="0%"></stop><stop style="stop-color: #3c3c3c;stop-opacity: 1" offset="100%"></stop></linearGradient><path d="M580.56 334.79C580.56 423.41 463.81 495.35 320 495.35C176.19 495.35 59.44 423.41 59.44 334.79C59.44 246.17 176.19 174.23 320 174.23C463.81 174.23 580.56 246.17 580.56 334.79Z" id="a2zsVQSi6j"></path><path d="M436.14 334.79C436.14 418.34 384.1 486.18 320 486.18C255.9 486.18 203.86 418.34 203.86 334.79C203.86 251.24 255.9 183.4 320 183.4C384.1 183.4 436.14 251.24 436.14 334.79Z" id="hzxmBPDhC"></path><radialGradient id="gradientannnnWLjg" gradientUnits="userSpaceOnUse" cx="249.14" cy="222.6" dx="338.09" dy="361.03" r="164.55"><stop style="stop-color: #e0eddb;stop-opacity: 1" offset="0%"></stop><stop style="stop-color: #7ced47;stop-opacity: 1" offset="100%"></stop></radialGradient></defs><g><g><g><use xlink:href="#l57ALrR4NS" opacity="1" fill="url(#gradientb6THn9rXZp)"></use><g><use xlink:href="#l57ALrR4NS" opacity="1" fill-opacity="0" stroke="#addaf6" stroke-width="15" stroke-opacity="1"></use></g></g><g><use xlink:href="#hRzm0m6i8" opacity="1" fill="url(#gradientdDJtdg0Sk)"></use><g><use xlink:href="#hRzm0m6i8" opacity="1" fill-opacity="0" stroke="#e9efe7" stroke-width="2" stroke-opacity="1"></use></g></g><g><use xlink:href="#a2zsVQSi6j" opacity="1" fill="#ffffff" fill-opacity="0"></use><g><use xlink:href="#a2zsVQSi6j" opacity="1" fill-opacity="0" stroke="#8cf967" stroke-width="15" stroke-opacity="1"></use></g></g><g><use xlink:href="#hzxmBPDhC" opacity="1" fill="url(#gradientannnnWLjg)"></use></g></g></g></svg>